<?xml version="1.0" encoding="UTF-8" standalone="no"?>
<!DOCTYPE svg PUBLIC "-//W3C//DTD SVG 1.1//EN" "http://www.w3.org/Graphics/SVG/1.1/DTD/svg11.dtd">
<svg width="100%" height="100%" viewBox="0 0 32 32" version="1.1" xmlns="http://www.w3.org/2000/svg" xmlns:xlink="http://www.w3.org/1999/xlink" xml:space="preserve" xmlns:serif="http://www.serif.com/" style="fill-rule:evenodd;clip-rule:evenodd;stroke-linecap:round;stroke-linejoin:round;stroke-miterlimit:1.5;">
    <g transform="matrix(1.02996,0,0,1,-7.02688,-14.3407)">
        <path d="M13.569,17.964L10.43,23.223C10.43,23.223 8.327,26.254 11.355,27.967C14.384,29.681 16.634,26.468 15.548,24.179C14.462,21.891 13.569,17.964 13.569,17.964Z" style="fill:none;stroke:black;stroke-width:1.64px;"/>
    </g>
    <g transform="matrix(1.39643,0,0,1.40723,-6.09887,-10.2584)">
        <path d="M13.569,17.964L10.43,23.223C10.43,23.223 8.327,26.254 11.355,27.967C14.384,29.681 16.634,26.468 15.548,24.179C14.462,21.891 13.569,17.964 13.569,17.964Z" style="fill:none;stroke:black;stroke-width:1.19px;"/>
    </g>
    <g transform="matrix(1.65859,0,0,1.77775,2.42346,-29.0376)">
        <path d="M13.569,17.964L10.43,23.223C10.43,23.223 8.327,26.254 11.355,27.967C14.384,29.681 16.634,26.468 15.548,24.179C14.462,21.891 13.569,17.964 13.569,17.964Z" style="fill:none;stroke:black;stroke-width:0.97px;"/>
    </g>
</svg>
