<?xml version="1.0" encoding="UTF-8" standalone="no"?>
<!DOCTYPE svg PUBLIC "-//W3C//DTD SVG 1.1//EN" "http://www.w3.org/Graphics/SVG/1.1/DTD/svg11.dtd">
<svg width="100%" height="100%" viewBox="0 0 32 32" version="1.1" xmlns="http://www.w3.org/2000/svg" xmlns:xlink="http://www.w3.org/1999/xlink" xml:space="preserve" xmlns:serif="http://www.serif.com/" style="fill-rule:evenodd;clip-rule:evenodd;stroke-linecap:round;stroke-linejoin:round;stroke-miterlimit:1.5;">
    <g transform="matrix(1.72067,0,0,1.96476,-13.1729,-19.732)">
        <path d="M14.967,22.095L17.712,25.272L24.983,19.858" style="fill:none;stroke:black;stroke-width:1.8px;"/>
    </g>
    <g transform="matrix(2.2691,0,0,2.2691,-18.596,-36.2766)">
        <path d="M9.028,19.038C10.163,19.03 12.431,19.014 13.824,19.014C13.932,19.014 14.033,19.012 14.127,19.005C14.856,18.956 15.247,18.528 15.247,17.941C15.247,17.241 14.298,16.428 13.276,17.13" style="fill:none;stroke:black;stroke-width:1.47px;"/>
    </g>
    <g transform="matrix(2.38582,0,0,2.2691,-9.99335,-32.2028)">
        <path d="M4.981,19.014L13.824,19.014C14.777,19.014 16.166,18.917 16.243,17.655C16.326,16.309 14.724,15.753 14.011,16.467" style="fill:none;stroke:black;stroke-width:1.43px;"/>
    </g>
    <g transform="matrix(2.38582,0,0,-2.2691,-13.6973,58.2049)">
        <path d="M6.533,19.014C8.041,19.018 11.055,19.025 12.447,19.025C12.744,19.025 14.626,19.144 14.626,17.797C14.626,16.447 13.16,16.209 12.447,16.923" style="fill:none;stroke:black;stroke-width:1.43px;"/>
    </g>
</svg>
